<svg xmlns="http://www.w3.org/2000/svg" width="50" height="48" viewBox="0 0 50 48" fill="none">
                <path d="M30.8506 38.0939C29.5216 36.7649 29.5216 34.6103 30.8506 33.2814C32.1795 31.9524 34.3341 31.9524 35.6631 33.2814L44.4729 42.0912C45.8018 43.4201 45.8018 45.5747 44.4729 46.9037C43.144 48.2326 40.9893 48.2326 39.6604 46.9037L30.8506 38.0939Z" fill="url(#paint0_linear_3192_198109)"></path>
                <path d="M18.6875 27.6875H2.875C1.30908 27.6875 0 26.3784 0 24.8125V11.875C0 10.2937 1.29375 9 2.875 9H20.125C21.6909 9 23 10.3091 23 11.875V32L18.6875 27.6875ZM17.2212 23.375L12.6787 11.875H10.2638L5.865 23.375H8.28L9.21437 20.8019H13.7425L14.7344 23.375H17.2212ZM13.0094 18.89H9.91875L11.4425 14.6925L13.0094 18.89Z" fill="url(#paint1_linear_3192_198109)"></path>
                <path d="M20.1318 5C19.5796 5 19.1318 5.44772 19.1318 6C19.1318 6.55228 19.5796 7 20.1318 7C20.7592 7 21.3742 7.05014 21.9731 7.14645C22.5183 7.23414 23.0315 6.86319 23.1192 6.31791C23.2068 5.77263 22.8359 5.25951 22.2906 5.17182C21.5871 5.05869 20.866 5 20.1318 5Z" fill="url(#paint2_linear_3192_198109)"></path>
                <path d="M27.1526 6.96709C26.6811 6.67949 26.0657 6.82857 25.7781 7.30007C25.4905 7.77156 25.6396 8.38693 26.1111 8.67452C29.052 10.4684 31.1222 13.5431 31.5498 17.1187C31.6154 17.6671 32.1131 18.0585 32.6615 17.9929C33.2099 17.9273 33.6013 17.4296 33.5357 16.8813C33.0329 12.6772 30.5999 9.06984 27.1526 6.96709Z" fill="url(#paint3_linear_3192_198109)"></path>
                <path fill-rule="evenodd" clip-rule="evenodd" d="M20.1318 0C9.91457 0 1.63184 8.28273 1.63184 18.5C1.63184 28.7173 9.91457 37 20.1318 37C24.146 37 27.8615 35.7215 30.8935 33.5496C31.047 34.124 31.349 34.667 31.7997 35.1177L41.6235 44.9415C42.9904 46.3084 45.2065 46.3084 46.5733 44.9415C47.9401 43.5747 47.9401 41.3586 46.5733 39.9918L36.7495 30.1679C36.2988 29.7173 35.7558 29.4152 35.1814 29.2617C37.3533 26.2297 38.6318 22.5142 38.6318 18.5C38.6318 8.28273 30.3491 0 20.1318 0ZM3.63184 18.5C3.63184 9.3873 11.0191 2 20.1318 2C29.2445 2 36.6318 9.3873 36.6318 18.5C36.6318 27.6127 29.2445 35 20.1318 35C11.0191 35 3.63184 27.6127 3.63184 18.5ZM33.2139 33.7035C32.6281 33.1177 32.6281 32.1679 33.2139 31.5822C33.7997 30.9964 34.7495 30.9964 35.3352 31.5822L45.1591 41.406C45.7449 41.9918 45.7449 42.9415 45.1591 43.5273C44.5733 44.1131 43.6235 44.1131 43.0378 43.5273L33.2139 33.7035Z" fill="url(#paint4_linear_3192_198109)"></path>
                <defs>
                <linearGradient id="paint0_linear_3192_198109" x1="23.5" y1="30.5" x2="43" y2="44.5" gradientUnits="userSpaceOnUse">
                <stop offset="0.0104167" stop-color="#AC76F0"></stop>
                <stop offset="0.515625" stop-color="#297FFF"></stop>
                <stop offset="1" stop-color="#6ABCF8"></stop>
                </linearGradient>
                <linearGradient id="paint1_linear_3192_198109" x1="0.71875" y1="9.71875" x2="19.4063" y2="26.9688" gradientUnits="userSpaceOnUse">
                <stop stop-color="#AC76F0"></stop>
                <stop offset="0.510417" stop-color="#6C29FF"></stop>
                <stop offset="1" stop-color="#6ABCF8"></stop>
                </linearGradient>
                <linearGradient id="paint2_linear_3192_198109" x1="-3.5" y1="14.5" x2="43" y2="33" gradientUnits="userSpaceOnUse">
                <stop stop-color="#6ABCF8"></stop>
                <stop offset="0.494792" stop-color="#297FFF"></stop>
                <stop offset="1" stop-color="#AC76F0"></stop>
                </linearGradient>
                <linearGradient id="paint3_linear_3192_198109" x1="-3.5" y1="14.5" x2="43" y2="33" gradientUnits="userSpaceOnUse">
                <stop stop-color="#6ABCF8"></stop>
                <stop offset="0.494792" stop-color="#297FFF"></stop>
                <stop offset="1" stop-color="#AC76F0"></stop>
                </linearGradient>
                <linearGradient id="paint4_linear_3192_198109" x1="-3.5" y1="14.5" x2="43" y2="33" gradientUnits="userSpaceOnUse">
                <stop stop-color="#6ABCF8"></stop>
                <stop offset="0.494792" stop-color="#297FFF"></stop>
                <stop offset="1" stop-color="#AC76F0"></stop>
                </linearGradient>
                </defs>
            </svg>